<mxfile host="Electron" modified="2024-05-11T10:54:59.818Z" agent="Mozilla/5.0 (Windows NT 10.0; Win64; x64) AppleWebKit/537.36 (KHTML, like Gecko) draw.io/23.1.5 Chrome/120.0.6099.109 Electron/28.1.0 Safari/537.36" etag="HyHjadwQbL5hpN1fiwI8" version="23.1.5" type="device">
  <diagram id="R2lEEEUBdFMjLlhIrx00" name="Page-1">
    <mxGraphModel dx="1104" dy="606" grid="1" gridSize="10" guides="1" tooltips="1" connect="1" arrows="1" fold="1" page="1" pageScale="1" pageWidth="850" pageHeight="1100" math="0" shadow="0" extFonts="Permanent Marker^https://fonts.googleapis.com/css?family=Permanent+Marker">
      <root>
        <mxCell id="0" />
        <mxCell id="1" parent="0" />
        <mxCell id="cAD1iMnfDI7gV6fziXgr-1" value="老师" style="rounded=0;whiteSpace=wrap;html=1;" vertex="1" parent="1">
          <mxGeometry x="70" y="250" width="100" height="40" as="geometry" />
        </mxCell>
        <mxCell id="cAD1iMnfDI7gV6fziXgr-3" value="学生" style="rounded=0;whiteSpace=wrap;html=1;" vertex="1" parent="1">
          <mxGeometry x="50" y="520" width="100" height="40" as="geometry" />
        </mxCell>
        <mxCell id="cAD1iMnfDI7gV6fziXgr-4" value="开设" style="rhombus;whiteSpace=wrap;html=1;" vertex="1" parent="1">
          <mxGeometry x="200" y="290" width="100" height="40" as="geometry" />
        </mxCell>
        <mxCell id="cAD1iMnfDI7gV6fziXgr-8" value="" style="endArrow=none;html=1;rounded=0;entryX=0;entryY=0;entryDx=0;entryDy=0;" edge="1" parent="1" target="cAD1iMnfDI7gV6fziXgr-4">
          <mxGeometry width="50" height="50" relative="1" as="geometry">
            <mxPoint x="170" y="270" as="sourcePoint" />
            <mxPoint x="220" y="220" as="targetPoint" />
          </mxGeometry>
        </mxCell>
        <mxCell id="cAD1iMnfDI7gV6fziXgr-10" value="课程" style="rounded=0;whiteSpace=wrap;html=1;fillColor=#d5e8d4;strokeColor=#82b366;" vertex="1" parent="1">
          <mxGeometry x="330" y="330" width="85" height="40" as="geometry" />
        </mxCell>
        <mxCell id="cAD1iMnfDI7gV6fziXgr-12" value="" style="endArrow=none;html=1;rounded=0;entryX=0.5;entryY=0;entryDx=0;entryDy=0;" edge="1" parent="1" target="cAD1iMnfDI7gV6fziXgr-10">
          <mxGeometry width="50" height="50" relative="1" as="geometry">
            <mxPoint x="300" y="310" as="sourcePoint" />
            <mxPoint x="350" y="260" as="targetPoint" />
          </mxGeometry>
        </mxCell>
        <mxCell id="cAD1iMnfDI7gV6fziXgr-13" value="参与" style="rhombus;whiteSpace=wrap;html=1;" vertex="1" parent="1">
          <mxGeometry x="190" y="390" width="90" height="50" as="geometry" />
        </mxCell>
        <mxCell id="cAD1iMnfDI7gV6fziXgr-14" value="" style="endArrow=none;html=1;rounded=0;exitX=1;exitY=0.25;exitDx=0;exitDy=0;" edge="1" parent="1" source="cAD1iMnfDI7gV6fziXgr-3" target="cAD1iMnfDI7gV6fziXgr-13">
          <mxGeometry width="50" height="50" relative="1" as="geometry">
            <mxPoint x="150" y="430" as="sourcePoint" />
            <mxPoint x="200" y="380" as="targetPoint" />
          </mxGeometry>
        </mxCell>
        <mxCell id="cAD1iMnfDI7gV6fziXgr-16" value="" style="endArrow=none;html=1;rounded=0;exitX=1;exitY=0.5;exitDx=0;exitDy=0;" edge="1" parent="1" source="cAD1iMnfDI7gV6fziXgr-13" target="cAD1iMnfDI7gV6fziXgr-10">
          <mxGeometry width="50" height="50" relative="1" as="geometry">
            <mxPoint x="280" y="440" as="sourcePoint" />
            <mxPoint x="330" y="390" as="targetPoint" />
          </mxGeometry>
        </mxCell>
        <mxCell id="cAD1iMnfDI7gV6fziXgr-18" value="作业" style="ellipse;whiteSpace=wrap;html=1;" vertex="1" parent="1">
          <mxGeometry x="320" y="440" width="70" height="50" as="geometry" />
        </mxCell>
        <mxCell id="cAD1iMnfDI7gV6fziXgr-19" value="测试" style="ellipse;whiteSpace=wrap;html=1;" vertex="1" parent="1">
          <mxGeometry x="530" y="440" width="70" height="50" as="geometry" />
        </mxCell>
        <mxCell id="cAD1iMnfDI7gV6fziXgr-21" value="资料" style="ellipse;whiteSpace=wrap;html=1;" vertex="1" parent="1">
          <mxGeometry x="410" y="440" width="70" height="50" as="geometry" />
        </mxCell>
        <mxCell id="cAD1iMnfDI7gV6fziXgr-24" value="" style="endArrow=none;html=1;rounded=0;exitX=0.5;exitY=0;exitDx=0;exitDy=0;entryX=0.5;entryY=1;entryDx=0;entryDy=0;" edge="1" parent="1" source="cAD1iMnfDI7gV6fziXgr-21" target="cAD1iMnfDI7gV6fziXgr-10">
          <mxGeometry width="50" height="50" relative="1" as="geometry">
            <mxPoint x="510" y="420" as="sourcePoint" />
            <mxPoint x="560" y="370" as="targetPoint" />
          </mxGeometry>
        </mxCell>
        <mxCell id="cAD1iMnfDI7gV6fziXgr-25" value="" style="endArrow=none;html=1;rounded=0;exitX=0.5;exitY=0;exitDx=0;exitDy=0;entryX=0.5;entryY=1;entryDx=0;entryDy=0;" edge="1" parent="1" source="cAD1iMnfDI7gV6fziXgr-18" target="cAD1iMnfDI7gV6fziXgr-10">
          <mxGeometry width="50" height="50" relative="1" as="geometry">
            <mxPoint x="510" y="420" as="sourcePoint" />
            <mxPoint x="560" y="370" as="targetPoint" />
          </mxGeometry>
        </mxCell>
        <mxCell id="cAD1iMnfDI7gV6fziXgr-28" value="" style="endArrow=none;html=1;rounded=0;entryX=0.5;entryY=1;entryDx=0;entryDy=0;exitX=0;exitY=0;exitDx=0;exitDy=0;" edge="1" parent="1" source="cAD1iMnfDI7gV6fziXgr-19" target="cAD1iMnfDI7gV6fziXgr-10">
          <mxGeometry width="50" height="50" relative="1" as="geometry">
            <mxPoint x="500" y="420" as="sourcePoint" />
            <mxPoint x="550" y="370" as="targetPoint" />
          </mxGeometry>
        </mxCell>
        <mxCell id="cAD1iMnfDI7gV6fziXgr-29" value="教育机构" style="rounded=0;whiteSpace=wrap;html=1;" vertex="1" parent="1">
          <mxGeometry x="20" y="710" width="80" height="40" as="geometry" />
        </mxCell>
        <mxCell id="cAD1iMnfDI7gV6fziXgr-30" value="开设" style="rhombus;whiteSpace=wrap;html=1;" vertex="1" parent="1">
          <mxGeometry x="90" y="770" width="100" height="40" as="geometry" />
        </mxCell>
        <mxCell id="cAD1iMnfDI7gV6fziXgr-31" value="比赛" style="rounded=0;whiteSpace=wrap;html=1;fillColor=#d5e8d4;strokeColor=#82b366;" vertex="1" parent="1">
          <mxGeometry x="140" y="680" width="85" height="40" as="geometry" />
        </mxCell>
        <mxCell id="cAD1iMnfDI7gV6fziXgr-36" value="参与" style="rhombus;whiteSpace=wrap;html=1;" vertex="1" parent="1">
          <mxGeometry x="60" y="610" width="90" height="50" as="geometry" />
        </mxCell>
        <mxCell id="cAD1iMnfDI7gV6fziXgr-37" value="" style="endArrow=none;html=1;rounded=0;exitX=0.5;exitY=0;exitDx=0;exitDy=0;entryX=0.5;entryY=1;entryDx=0;entryDy=0;" edge="1" parent="1" source="cAD1iMnfDI7gV6fziXgr-36" target="cAD1iMnfDI7gV6fziXgr-3">
          <mxGeometry width="50" height="50" relative="1" as="geometry">
            <mxPoint x="50" y="600" as="sourcePoint" />
            <mxPoint x="100" y="550" as="targetPoint" />
          </mxGeometry>
        </mxCell>
        <mxCell id="cAD1iMnfDI7gV6fziXgr-38" value="" style="endArrow=none;html=1;rounded=0;exitX=0.932;exitY=0.551;exitDx=0;exitDy=0;exitPerimeter=0;entryX=0.429;entryY=0.005;entryDx=0;entryDy=0;entryPerimeter=0;" edge="1" parent="1" source="cAD1iMnfDI7gV6fziXgr-36" target="cAD1iMnfDI7gV6fziXgr-31">
          <mxGeometry width="50" height="50" relative="1" as="geometry">
            <mxPoint x="230" y="600" as="sourcePoint" />
            <mxPoint x="280" y="550" as="targetPoint" />
          </mxGeometry>
        </mxCell>
        <mxCell id="cAD1iMnfDI7gV6fziXgr-39" value="" style="endArrow=none;html=1;rounded=0;entryX=0;entryY=0;entryDx=0;entryDy=0;exitX=1;exitY=0.5;exitDx=0;exitDy=0;" edge="1" parent="1" source="cAD1iMnfDI7gV6fziXgr-29" target="cAD1iMnfDI7gV6fziXgr-30">
          <mxGeometry width="50" height="50" relative="1" as="geometry">
            <mxPoint x="80" y="690" as="sourcePoint" />
            <mxPoint x="130" y="640" as="targetPoint" />
          </mxGeometry>
        </mxCell>
        <mxCell id="cAD1iMnfDI7gV6fziXgr-41" value="" style="endArrow=none;html=1;rounded=0;entryX=0.5;entryY=1;entryDx=0;entryDy=0;" edge="1" parent="1" source="cAD1iMnfDI7gV6fziXgr-30" target="cAD1iMnfDI7gV6fziXgr-31">
          <mxGeometry width="50" height="50" relative="1" as="geometry">
            <mxPoint x="250" y="720" as="sourcePoint" />
            <mxPoint x="300" y="670" as="targetPoint" />
          </mxGeometry>
        </mxCell>
        <mxCell id="cAD1iMnfDI7gV6fziXgr-43" value="比赛信息" style="ellipse;whiteSpace=wrap;html=1;" vertex="1" parent="1">
          <mxGeometry x="260" y="690" width="70" height="50" as="geometry" />
        </mxCell>
        <mxCell id="cAD1iMnfDI7gV6fziXgr-44" value="报名信息" style="ellipse;whiteSpace=wrap;html=1;" vertex="1" parent="1">
          <mxGeometry x="205" y="765" width="75" height="50" as="geometry" />
        </mxCell>
        <mxCell id="cAD1iMnfDI7gV6fziXgr-45" value="" style="endArrow=none;html=1;rounded=0;exitX=1;exitY=0.5;exitDx=0;exitDy=0;entryX=0;entryY=0.5;entryDx=0;entryDy=0;" edge="1" parent="1" source="cAD1iMnfDI7gV6fziXgr-31" target="cAD1iMnfDI7gV6fziXgr-43">
          <mxGeometry width="50" height="50" relative="1" as="geometry">
            <mxPoint x="360" y="670" as="sourcePoint" />
            <mxPoint x="410" y="620" as="targetPoint" />
          </mxGeometry>
        </mxCell>
        <mxCell id="cAD1iMnfDI7gV6fziXgr-47" value="" style="endArrow=none;html=1;rounded=0;entryX=1;entryY=0.5;entryDx=0;entryDy=0;" edge="1" parent="1" source="cAD1iMnfDI7gV6fziXgr-44" target="cAD1iMnfDI7gV6fziXgr-31">
          <mxGeometry width="50" height="50" relative="1" as="geometry">
            <mxPoint x="310" y="710" as="sourcePoint" />
            <mxPoint x="370" y="660" as="targetPoint" />
          </mxGeometry>
        </mxCell>
        <mxCell id="cAD1iMnfDI7gV6fziXgr-48" value="参与" style="rhombus;whiteSpace=wrap;html=1;" vertex="1" parent="1">
          <mxGeometry x="200" y="540" width="90" height="50" as="geometry" />
        </mxCell>
        <mxCell id="cAD1iMnfDI7gV6fziXgr-49" value="" style="endArrow=none;html=1;rounded=0;entryX=0;entryY=0;entryDx=0;entryDy=0;exitX=1;exitY=0.75;exitDx=0;exitDy=0;" edge="1" parent="1" source="cAD1iMnfDI7gV6fziXgr-3" target="cAD1iMnfDI7gV6fziXgr-48">
          <mxGeometry width="50" height="50" relative="1" as="geometry">
            <mxPoint x="150" y="540" as="sourcePoint" />
            <mxPoint x="200" y="490" as="targetPoint" />
          </mxGeometry>
        </mxCell>
        <mxCell id="cAD1iMnfDI7gV6fziXgr-51" value="论坛" style="rounded=0;whiteSpace=wrap;html=1;fillColor=#f8cecc;strokeColor=#b85450;" vertex="1" parent="1">
          <mxGeometry x="325" y="560" width="85" height="40" as="geometry" />
        </mxCell>
        <mxCell id="cAD1iMnfDI7gV6fziXgr-53" value="评论" style="ellipse;whiteSpace=wrap;html=1;" vertex="1" parent="1">
          <mxGeometry x="425" y="630" width="70" height="50" as="geometry" />
        </mxCell>
        <mxCell id="cAD1iMnfDI7gV6fziXgr-54" value="主题" style="ellipse;whiteSpace=wrap;html=1;" vertex="1" parent="1">
          <mxGeometry x="480" y="565" width="75" height="50" as="geometry" />
        </mxCell>
        <mxCell id="cAD1iMnfDI7gV6fziXgr-55" value="" style="endArrow=none;html=1;rounded=0;entryX=0;entryY=0.5;entryDx=0;entryDy=0;exitX=1;exitY=0.5;exitDx=0;exitDy=0;" edge="1" parent="1" source="cAD1iMnfDI7gV6fziXgr-48" target="cAD1iMnfDI7gV6fziXgr-51">
          <mxGeometry width="50" height="50" relative="1" as="geometry">
            <mxPoint x="260" y="580" as="sourcePoint" />
            <mxPoint x="310" y="530" as="targetPoint" />
          </mxGeometry>
        </mxCell>
        <mxCell id="cAD1iMnfDI7gV6fziXgr-56" value="" style="endArrow=none;html=1;rounded=0;entryX=0.024;entryY=0.304;entryDx=0;entryDy=0;entryPerimeter=0;exitX=1;exitY=0.25;exitDx=0;exitDy=0;" edge="1" parent="1" source="cAD1iMnfDI7gV6fziXgr-51" target="cAD1iMnfDI7gV6fziXgr-54">
          <mxGeometry width="50" height="50" relative="1" as="geometry">
            <mxPoint x="420" y="570" as="sourcePoint" />
            <mxPoint x="460" y="520" as="targetPoint" />
          </mxGeometry>
        </mxCell>
        <mxCell id="cAD1iMnfDI7gV6fziXgr-57" value="" style="endArrow=none;html=1;rounded=0;exitX=0.5;exitY=0;exitDx=0;exitDy=0;entryX=0.5;entryY=1;entryDx=0;entryDy=0;" edge="1" parent="1" source="cAD1iMnfDI7gV6fziXgr-53" target="cAD1iMnfDI7gV6fziXgr-51">
          <mxGeometry width="50" height="50" relative="1" as="geometry">
            <mxPoint x="330" y="630" as="sourcePoint" />
            <mxPoint x="380" y="580" as="targetPoint" />
          </mxGeometry>
        </mxCell>
      </root>
    </mxGraphModel>
  </diagram>
</mxfile>
